# xmcd CD database file
# Copyright (C) 1993-1998 Ti Kan
#
# Track frame offsets:
#	182
#	13705
#	25567
#	38375
#	49970
#	61672
#	73165
#	84420
#	96357
#	108285
#	120562
#	132382
#	143215
#	154227
#	165300
#	179060
#	192390
#	205202
#	219942
#	230605
#	240700
#	250527
#	263315
#	275070
#	287047
#
# Disc length: 3980 seconds
#
# Revision: 1
# Processed by: cddbd v1.4b41PL1 Copyright (c) Steve Scherf et al.
# Submitted via: QuintessentialCD v1.0 (c) 1998 Paul Quinn
#
DISCID=5d0f8a19
DTITLE=Various Artist - Big Bad Blues (25 Sun Records Blues Classics)
DYEAR=1900
DGENRE=
TTITLE0=Before Long-Jimmy and Walter
TTITLE1=We All Gotta Go Sometime-Joe Hill Louis
TTITLE2=Bear Cat-Rufus Thomas
TTITLE3=Carry My Business On-Houston Boines
TTITLE4=Baby I'm Coming Home-Charlie Booker
TTITLE5=Juiced-Billy Love
TTITLE6=My Real Gone Rocket-Jackie Brenston
TTITLE7=Greyhound Blues-D.A. Hunt
TTITLE8=Wolf Call Boogie-Hot Shot Love
TTITLE9=Prison Bound Blues-Willie Nix
TTITLE10=Blues Train-Tot Randolph
TTITLE11=Mystery Train-Little Junior's Blue Flames
TTITLE12=Beggin' My Baby-Little Milton
TTITLE13=Red Hot-Billy "The Kid" Emerson
TTITLE14=Cotton Crop Blues-James Cotton
TTITLE15=I'm Gonna Murder My Baby-Pat Hare
TTITLE16=Rattlesnakin' Mama-William Stewart
TTITLE17=Tiger Man-Mose Vinson
TTITLE18=Gonna Leave You Baby-Sammy Lewis and Willie Johnson
TTITLE19=Cool Down Mama-Lost John Hunter
TTITLE20=Come Back Home-Howlin' Wolf
TTITLE21=Come Back Baby-Dr. Ross
TTITLE22=I Feel So Worried-Sammy Lewis-Willie Johnson Combo
TTITLE23=Let's Get High-Rosco Gordon
TTITLE24=Ain't That Right-Eddie Snow
EXTD=
EXTT0=
EXTT1=
EXTT2=
EXTT3=
EXTT4=
EXTT5=
EXTT6=
EXTT7=
EXTT8=
EXTT9=
EXTT10=
EXTT11=
EXTT12=
EXTT13=
EXTT14=
EXTT15=
EXTT16=
EXTT17=
EXTT18=
EXTT19=
EXTT20=
EXTT21=
EXTT22=
EXTT23=
EXTT24=
PLAYORDER=
